<?xml version="1.0" encoding="UTF-8" standalone="no"?>
<!DOCTYPE svg PUBLIC "-//W3C//DTD SVG 1.1//EN" "http://www.w3.org/Graphics/SVG/1.1/DTD/svg11.dtd">
<svg width="100%" height="100%" viewBox="0 0 417 417" version="1.1" xmlns="http://www.w3.org/2000/svg" xmlns:xlink="http://www.w3.org/1999/xlink" xml:space="preserve" xmlns:serif="http://www.serif.com/" style="fill-rule:evenodd;clip-rule:evenodd;stroke-linejoin:round;stroke-miterlimit:2;">
    <g transform="matrix(1.34459,0,0,1.34459,-282.265,-280.484)">
        <g id="logo">
            <g>
                <g transform="matrix(0.378945,0,0,0.378945,114.522,177.181)">
                    <g transform="matrix(1,0,0,1,577.149,415.1)">
                        <path d="M0,-24.107C-7.054,-28.215 -14.899,-29.824 -23.686,-27.992C-34.897,-25.641 -45.54,-21.756 -55.91,-17.276C-39.649,-14.628 -23.81,-9.529 -8.489,-1.486C-3.639,1.039 1.336,3.316 6.236,5.717C6.212,5.692 6.187,5.642 6.162,5.618L6.236,5.667C-1.658,-3.589 -1.584,-13.935 0,-24.107" style="fill:white;fill-rule:nonzero;"/>
                    </g>
                    <g transform="matrix(1,0,0,1,839.059,419.705)">
                        <path d="M0,-43.616C-7.013,-35.286 -12.311,-29.895 -22.581,-32.937C-18.757,-43.334 -11.276,-44.429 0,-43.616M-19.019,-73.245C-9.999,-89.368 9.906,-92.617 33.712,-81.18C17.503,-64.41 -5.118,-61.266 -19.019,-73.245M-353.095,-31.072C-366.074,-27.885 -372.469,-32.761 -376.745,-49.288C-364.358,-48.451 -355.114,-44.825 -353.095,-31.072M-381.265,-81.807C-362.316,-93.716 -347.027,-93.156 -336.701,-80.811C-347.304,-68.796 -362.404,-68.908 -381.265,-81.807M-353.73,72.217L-354.127,72.093C-354.151,72.069 -354.151,72.069 -354.151,72.044L-353.73,72.217ZM29.988,14.377C26.003,13.387 22.043,12.298 18.108,11.11C18.257,25.935 16.87,40.488 13.455,54.793L13.455,54.818C11.771,61.921 9.569,68.95 6.847,75.905C5.511,79.32 4.1,82.711 2.417,85.953C-1.296,93.18 -7.682,91.25 -12.978,89.269C-13.423,89.096 -13.794,88.923 -14.141,88.75C-19.215,86.101 -15.057,81.721 -13.473,78.503C-2.335,55.585 -1.172,31.281 -2.632,6.482C-2.682,5.616 -2.806,4.824 -2.954,4.081C-4.019,-1.042 -7.582,-2.774 -13.225,-3.244C-17.309,-3.591 -21.343,-3.814 -25.303,-3.864C-64.927,-4.606 -97.3,8.759 -123.039,35.414C-130.86,43.508 -138.087,52.813 -144.695,63.332C-149.521,71.004 -153.902,78.825 -157.714,86.893C-163.109,98.254 -167.391,110.059 -170.236,122.533C-170.633,124.191 -170.831,126.246 -173.702,127.038C-174.84,120.405 -174.048,114.044 -172.736,107.659C-170.954,98.897 -168.678,90.408 -165.881,82.191C-157.07,56.526 -143.111,33.632 -122.742,14.155C-120.613,12.15 -118.807,9.823 -116.852,7.645C-120.613,4.255 -119.995,-0.052 -119.945,-4.556C-119.896,-9.853 -120.094,-15.001 -120.564,-20.05C-123.881,-56.407 -140.29,-86.453 -166.871,-111.598C-169.618,-114.198 -172.464,-116.746 -175.435,-119.246C-181.053,-123.998 -185.482,-123.033 -190.828,-118.603C-192.486,-117.241 -194.096,-115.856 -195.68,-114.445C-199.342,-111.202 -202.832,-107.886 -206.124,-104.446C-212.731,-97.59 -218.573,-90.339 -223.597,-82.716C-230.973,-71.553 -236.64,-59.55 -240.402,-46.631C-243.471,-36.236 -245.327,-25.247 -245.921,-13.664C-246.045,-11.164 -246.119,-8.64 -246.119,-6.091C-246.144,1.606 -247.382,5.566 -255.673,1.062L-255.599,1.136C-255.623,1.136 -255.647,1.112 -255.673,1.112C-245.277,13.363 -232.605,23.46 -223.325,36.801C-222.78,37.592 -222.211,38.384 -221.691,39.201C-210.851,55.189 -202.733,72.069 -197.561,90.482C-194.17,102.51 -192.041,115.207 -191.249,128.72C-197.312,124.29 -196.694,119.291 -197.882,115.232C-200.109,107.584 -202.684,100.134 -205.604,92.957C-207.436,88.527 -209.366,84.22 -211.445,80.013C-224.166,54.274 -242.258,32.296 -267.453,15.466C-293.663,-2.032 -323.288,-5.472 -354.003,-3.072C-359.745,-2.626 -362.765,0.344 -363.11,5.913C-364.373,25.069 -364.175,44.027 -358.903,62.268L-358.903,62.292C-357.394,67.613 -355.414,72.861 -352.938,78.058C-351.305,81.498 -345.935,86.077 -352.419,89.047C-353.235,89.418 -354.052,89.764 -354.894,90.061C-360.215,91.918 -365.857,91.794 -369.199,84.517C-372.392,77.588 -375.164,70.509 -377.366,63.282C-378.926,58.258 -380.237,53.209 -381.252,48.036L-381.252,48.012C-381.821,45.141 -382.316,42.245 -382.687,39.325C-384.271,27.321 -384.52,15.169 -383.728,3.042C-393.132,4.18 -402.784,3.834 -412.685,1.458C-432.93,-3.418 -448.423,-14.283 -453.744,-35.815C-453.867,-35.964 -454.016,-36.087 -454.14,-36.236L-453.99,-36.386C-454.057,-36.325 -454.145,-36.245 -454.145,-36.245C-454.225,-36.438 -454.304,-36.626 -454.369,-36.783C-454.411,-36.814 -454.449,-36.842 -454.485,-36.868C-454.529,-36.901 -454.574,-36.934 -454.604,-36.956C-454.729,-37.048 -454.758,-37.069 -454.604,-36.956C-454.57,-36.931 -454.532,-36.903 -454.485,-36.868C-454.447,-36.841 -454.418,-36.82 -454.369,-36.783C-454.535,-37.181 -454.612,-37.366 -454.369,-36.783C-454.236,-36.686 -454.08,-36.571 -453.921,-36.454L-453.917,-36.459C-453.867,-36.236 -453.818,-36.013 -453.744,-35.815C-450.552,-32.4 -447.383,-28.91 -444.092,-25.569C-428.078,-9.333 -408.947,-4.606 -387.093,-10.397C-385.435,-10.843 -383.802,-11.288 -382.168,-11.808C-380.534,-18.664 -376.03,-22.054 -368.531,-22.871C-362.765,-23.49 -357.047,-23.886 -351.354,-24.034C-349.053,-25.123 -346.751,-26.188 -344.449,-27.277C-325.838,-36.063 -307.177,-44.676 -283.887,-48.388C-313.389,-67.841 -334.822,-90.71 -341.925,-125.038C-356.997,-129.443 -372.12,-134.269 -384.173,-144.788C-393.85,-153.227 -404.863,-160.85 -407.313,-174.908C-407.313,-174.933 -407.338,-174.933 -407.363,-174.958C-407.366,-174.963 -407.373,-174.968 -407.376,-174.972L-408.091,-175.013C-408.091,-175.013 -407.554,-175.164 -407.559,-175.178C-407.56,-175.179 -407.561,-175.179 -407.561,-175.18L-407.557,-175.177C-407.556,-175.184 -407.305,-174.969 -407.305,-174.969L-407.327,-174.97L-407.313,-174.958L-407.313,-174.908C-391.572,-157.757 -375.114,-141.818 -348.682,-139.516C-347.691,-166.989 -352.172,-194.906 -332.347,-217.18C-332.298,-217.379 -332.272,-217.601 -332.224,-217.799L-331.976,-217.601C-332.1,-217.453 -332.224,-217.329 -332.347,-217.18C-336.802,-193.99 -341.925,-170.998 -338.213,-146.991C-331.53,-103.407 -307.028,-72.692 -269.186,-52.744C-265.771,-50.937 -262.033,-49.799 -258.049,-48.982C-255.4,-60.613 -251.54,-71.526 -246.616,-81.746C-265.352,-88.602 -277.97,-111.563 -278.829,-143.28C-255.832,-136.131 -239.294,-120.085 -234.268,-102.966C-229.794,-109.415 -224.851,-115.592 -219.464,-121.449C-217.088,-166.716 -223.969,-211.043 -245.401,-254.429C-245.624,-254.652 -245.822,-254.849 -246.045,-255.072C-246.045,-255.072 -246.036,-255.083 -246.027,-255.09C-246.705,-257.233 -247.392,-259.363 -248.078,-261.492L-248.569,-261.658C-248.569,-261.658 -248.148,-261.667 -248.14,-261.683C-248.142,-261.69 -248.144,-261.696 -248.146,-261.701L-247.952,-261.449C-247.251,-259.398 -246.551,-257.347 -245.837,-255.311L-245.841,-255.307C-245.694,-255.014 -245.548,-254.721 -245.401,-254.429C-227.532,-236.535 -220.107,-213.419 -213.524,-189.882C-212.336,-185.625 -212.757,-180.873 -208.549,-175.675C-195.506,-197.455 -191.843,-220.844 -188.997,-244.603C-185.013,-215.621 -186.894,-187.531 -202.213,-161.642C-205.53,-156.049 -208.178,-150.901 -207.51,-144.07C-207.163,-140.754 -206.891,-137.437 -206.693,-134.121C-202.213,-138.179 -197.511,-142.09 -192.586,-145.852C-186.695,-150.356 -180.73,-151.247 -174.494,-146.52C-170.954,-143.823 -167.515,-141.1 -164.223,-138.279C-159.743,-139.343 -154.843,-140.11 -149.571,-140.506C-150.065,-136.175 -151.304,-132.017 -153.159,-128.156C-142.202,-117.471 -132.902,-105.871 -125.405,-93.283C-119.131,-111.378 -101.774,-129.672 -82.823,-137.47C-75.013,-110.279 -90.279,-76.798 -112.936,-66.809C-108.336,-53.869 -105.417,-40.016 -104.378,-25.198C-77.698,-33.786 -60.249,-53.957 -45.425,-76.9C-19.115,-117.613 -16.665,-162.335 -26.54,-208.568C-27.53,-213.171 -28.1,-217.898 -28.817,-222.551C-28.941,-222.699 -29.04,-222.824 -29.139,-222.972L-28.916,-223.145C-28.892,-222.947 -28.842,-222.749 -28.817,-222.551C-11.492,-199.336 -7.582,-172.284 -7.261,-143.253C3.729,-143.427 11.5,-149.515 19.767,-154.341C33.354,-162.236 42.388,-175.354 54.589,-184.808C54.688,-185.031 54.762,-185.253 54.861,-185.476L54.994,-185.344C54.934,-185.406 54.871,-185.471 54.871,-185.471C54.983,-185.557 55.095,-185.643 55.206,-185.729C55.548,-187.062 56.374,-187.755 57.768,-187.7C57.86,-187.771 57.954,-187.843 58.047,-187.915C58.157,-188.256 58.267,-188.597 58.377,-188.939C58.36,-188.507 58.345,-188.075 58.328,-187.644L58.047,-187.915C58.047,-187.915 58.328,-187.644 58.318,-187.651C58.123,-187.682 57.944,-187.693 57.768,-187.7C56.914,-187.043 56.061,-186.386 55.206,-185.729C55.166,-185.572 55.127,-185.413 55.1,-185.238L55.108,-185.229C54.936,-185.105 54.762,-184.956 54.589,-184.808C44.343,-159.539 24.766,-143.303 1.551,-130.68C-3.152,-128.107 -8.176,-126.152 -13.25,-123.825C-17.977,-106.129 -23.422,-89.002 -32.034,-73.014C-40.449,-57.372 -51.958,-44.205 -66.189,-30.617C-57.552,-27.722 -49.533,-25.198 -41.762,-22.525C-29.98,-24.01 -17.902,-24.306 -5.603,-23.564C-1.048,-23.292 2.59,-22.896 5.511,-22.203C5.521,-22.2 5.531,-22.197 5.543,-22.194C11.416,-32.777 21.063,-35.761 36.064,-32.287C30.365,-21.604 24.069,-16.306 14.919,-15.463C16.55,-12.147 17.242,-7.472 17.662,-0.745C17.687,-0.423 17.712,-0.126 17.712,0.196C51.1,12.447 75.75,4.255 96.317,-25.965C98.816,-29.653 101.192,-33.464 104.063,-37.869C98.124,1.136 66.939,23.51 29.988,14.377M25.365,47.636C24.416,47.634 23.47,47.63 22.522,47.625L22.418,47.412C23.428,47.408 24.437,47.405 25.447,47.401C25.447,47.401 25.367,47.634 25.365,47.636M-442.09,-88.22C-413.589,-79.03 -396.359,-38.938 -412.436,-18.225C-437.518,-28.537 -449.16,-56.873 -442.09,-88.22M-392.685,-142.343C-401.843,-129.405 -415.322,-128.278 -432.823,-138.985C-419.331,-151.891 -404.034,-153.172 -392.685,-142.343M-399.91,-210.354C-384.615,-199.517 -380.163,-181.836 -389.314,-168.277C-404.229,-175.416 -407.931,-190.114 -399.91,-210.354M-377.73,-255.109C-352.307,-241.342 -342.333,-223.583 -347.994,-203.388C-368.142,-202.72 -383.205,-228.227 -377.73,-255.109M-331.867,-218.199C-331.841,-218.345 -331.825,-218.431 -331.813,-218.492C-331.794,-218.601 -331.792,-218.611 -331.813,-218.492C-331.826,-218.425 -331.846,-218.319 -331.867,-218.199C-331.457,-218.643 -331.59,-218.499 -331.868,-218.197C-331.899,-218.025 -331.936,-217.82 -331.976,-217.609C-331.976,-217.609 -332.221,-217.808 -332.223,-217.81C-332.097,-217.948 -331.973,-218.083 -331.868,-218.197C-331.867,-218.198 -331.867,-218.198 -331.867,-218.199M-304.295,-109.315C-310.626,-121.799 -307.815,-130.311 -292.771,-141.944C-290.08,-122.147 -292.385,-115.965 -304.295,-109.315M-274.474,-208.266C-286.849,-181.391 -311.741,-167.868 -330.649,-176.938C-329.916,-198.551 -303.735,-213.493 -274.474,-208.266M-311.624,-269.189C-309.036,-252.344 -312.774,-244.045 -327.255,-236.075C-332.645,-250.162 -328.062,-259.438 -311.624,-269.189M-244.058,-232.484C-259.646,-223.849 -276.849,-231.827 -287.855,-253.583C-264.816,-256.113 -250.437,-248.949 -244.058,-232.484M-238.966,-295.293C-233.538,-284.167 -232.838,-274.835 -239.084,-265.194C-250.06,-272.931 -250.062,-281.08 -238.966,-295.293M-204.714,-207.596C-220.085,-214.086 -221.365,-227.511 -222.862,-243.127C-203.795,-233.229 -197.597,-220.681 -204.714,-207.596M-187.031,-293.736C-203.024,-287.39 -218.373,-298.199 -225.736,-321.803C-202.749,-320.424 -190.106,-311.002 -187.031,-293.736M-138.751,-232.963C-149.885,-212.919 -163.612,-205.675 -180.312,-210.214C-181.666,-226.335 -163.897,-236.366 -138.751,-232.963M-147.866,-318.791C-140.857,-295.18 -143.266,-284.576 -157.137,-275.02C-168.149,-287.067 -164.868,-303.844 -147.866,-318.791M-129.124,-191.471C-132.239,-177.683 -140.655,-173.132 -158.175,-175.757C-150.68,-190.317 -143.139,-194.396 -129.124,-191.471M-80.958,-263.128C-95.686,-262.874 -101.729,-269.571 -104.834,-290.179C-91.664,-284.285 -81.197,-278.435 -80.958,-263.128M-77.32,-57.324C-83.75,-72.323 -80.73,-82.098 -66.867,-93.512C-60.349,-77.067 -63.521,-65.32 -77.32,-57.324M-40.186,-123.569C-54.643,-129.563 -58.663,-138.598 -55.944,-157.473C-41.419,-151.511 -35.279,-138.958 -40.186,-123.569M-30.082,-181.945C-52.145,-170.758 -82.833,-186.072 -96.818,-214.529C-69.55,-223.744 -34.361,-206.966 -30.082,-181.945M-55.589,-293.928C-39.085,-285.025 -32.952,-269.047 -40.573,-254.806C-55.331,-259.179 -61.226,-274.537 -55.589,-293.928M-29.285,-223.56C-29.286,-223.561 -29.286,-223.562 -29.287,-223.563C-29.18,-223.442 -29.054,-223.3 -28.927,-223.157C-28.927,-223.157 -29.144,-222.973 -29.141,-222.977C-29.193,-223.188 -29.245,-223.393 -29.287,-223.563C-29.323,-223.603 -29.355,-223.639 -29.387,-223.674C-29.433,-223.726 -29.471,-223.769 -29.498,-223.8C-29.586,-223.898 -29.6,-223.914 -29.498,-223.8C-29.468,-223.766 -29.431,-223.724 -29.387,-223.674C-29.354,-223.638 -29.329,-223.61 -29.287,-223.563C-29.389,-223.962 -29.434,-224.141 -29.285,-223.56M7.605,-270.135C17.828,-248.418 9.81,-222.136 -10.132,-214.525C-20.562,-233.235 -12.931,-256.303 7.605,-270.135M42.026,-227.458C49.039,-203.793 44.618,-187.134 28.199,-177.82C17.45,-194.047 23.28,-213.884 42.026,-227.458M90.942,-152.085C68.508,-137.074 51.693,-136.499 37.453,-149.637C47.713,-165.988 69.539,-167.255 90.942,-152.085M75.02,-113.897C75.052,-94.135 69.881,-85.662 55.725,-81.205C50.493,-94.694 56.208,-104.813 75.02,-113.897M86.573,-90.536C98.703,-56.351 87.506,-20.123 61.951,-8.87C42.538,-21.815 51.77,-63.674 86.573,-90.536M-178.091,-336.788C-352.05,-336.788 -493.071,-195.767 -493.071,-21.808C-493.071,35 -478.025,88.292 -451.712,134.311C-450.363,132.669 -448.595,131.189 -446.616,129.735C-416.916,108.03 -384.692,95.333 -351.8,93.131C-346.899,92.784 -341.999,92.685 -337.074,92.808C-304.306,93.724 -271.166,105.134 -239.486,128.424C-222.756,140.724 -208.821,155.648 -196.595,172.304C-194.517,175.101 -192.017,177.824 -191.67,184.036C-201.743,174.433 -209.737,165.473 -219.019,158.173C-260.399,125.701 -305.395,103.723 -360.091,113.797C-382.316,117.881 -402.809,126.765 -421.248,140.155C-426.544,143.991 -428.178,148.446 -425.505,154.361C-406.72,196.014 -378.258,227.595 -333.04,240.688C-331.949,241.004 -330.858,241.282 -329.768,241.581C-328.755,241.447 -327.963,241.748 -327.188,242.174C-327.042,242.254 -326.894,242.326 -326.747,242.405C-291.084,251.684 -255.085,252.189 -219.019,242.395C-216.37,241.677 -213.573,239.921 -209.44,243.311C-228.869,252.122 -248.1,258.953 -268.493,260.685C-272.271,261.007 -276.048,261.259 -279.822,261.446C-263.02,266.431 -245.785,270.061 -228.425,273.345C-219.196,275.092 -209.99,277.79 -201.307,281.35C-195.591,283.694 -190.844,287.219 -188.465,292.984C-185.019,293.095 -181.564,293.172 -178.091,293.172C-174.126,293.172 -170.185,293.074 -166.256,292.928C-161.71,284.046 -152.437,279.422 -141.265,276.78C-121.537,272.116 -101.632,268.2 -81.931,263.431C-79.729,262.899 -77.545,262.319 -75.371,261.711C-101.299,261.351 -126.238,256.585 -150.264,246.009C-152.912,244.845 -155.857,244.227 -158.506,240.44C-152.021,239.722 -146.897,242.148 -141.651,243.41C-95.864,254.473 -51.092,251.207 -8.671,230.714C24.072,214.924 45.382,187.625 59.489,154.485C63.475,145.13 57.41,140.996 50.976,136.937C2.838,106.421 -46.909,102.585 -98.661,127.508C-124.771,140.055 -148.259,155.895 -167.366,177.874C-168.95,179.705 -170.311,182.205 -175.335,181.784C-158.753,155.4 -138.112,135.205 -112.941,119.266C-80.618,98.799 -47.577,91.076 -15.873,93.031C-11.369,93.303 -6.914,93.774 -2.459,94.442C27.513,98.847 56.049,111.742 81.344,130.428C88.315,135.574 89.618,141.089 86.951,148.442C118.551,99.35 136.889,40.914 136.889,-21.808C136.889,-195.767 -4.133,-336.788 -178.091,-336.788" style="fill:white;fill-rule:nonzero;"/>
                    </g>
                </g>
                <g id="base" transform="matrix(0.378945,0,0,0.378945,114.522,177.181)">
                    <g transform="matrix(1,0,0,1,815.751,681.663)">
                        <path d="M0,-0.335C-0.094,-0.29 -0.187,-0.245 -0.28,-0.201C-0.291,-0.134 -0.305,-0.067 -0.313,0L0,-0.335Z" style="fill:white;fill-rule:nonzero;"/>
                    </g>
                    <g transform="matrix(1,0,0,1,881.95,830.689)">
                        <path d="M0,-197.75C-4.912,-192.47 -9.632,-187.01 -14.299,-181.502C-22.738,-171.541 -30.998,-161.412 -39.86,-151.843C-56.183,-134.219 -77.534,-130.139 -100.965,-132.724C-89.47,-138.225 -77.975,-143.726 -66.479,-149.228C-66.128,-151.518 -65.146,-153.785 -64.263,-156.085C-62.464,-160.764 -61.086,-165.579 -66.323,-171.004C-82.812,-162.031 -100.062,-154.368 -118.263,-149.273C-120.437,-148.665 -122.621,-148.085 -124.822,-147.553C-144.523,-142.784 -164.429,-138.868 -184.156,-134.204C-195.328,-131.562 -204.602,-126.938 -209.147,-118.056C-211.185,-114.074 -212.273,-109.239 -212.154,-103.341C-238.097,-94.609 -263.748,-86.227 -278.636,-61.56C-291.572,-40.124 -284.347,-3.832 -264.787,11.042C-264.709,-40.392 -248.026,-60.747 -196.496,-70.774C-177.949,-74.383 -159.171,-77.716 -140.356,-78.866C-80.915,-82.503 -33.845,-106.236 -3.057,-158.856C3.752,-170.493 12.35,-181.071 19.813,-192.342C22.668,-196.652 27.104,-200.339 27.042,-206.208C20.896,-208.203 16.46,-208.792 11.997,-207.088C8.336,-205.69 4.656,-202.756 0,-197.75" style="fill:white;fill-rule:nonzero;"/>
                    </g>
                    <g transform="matrix(1,0,0,1,672.554,901.325)">
                        <path d="M0,-107.669C-12.299,-99.495 -16.799,-86.944 -18.516,-73.441C-20.47,-58.067 -28.926,-47.979 -41.783,-40.773C-54.651,-33.564 -68.895,-31.529 -83.274,-29.955C-109.604,-27.071 -136.417,-27.115 -161.611,-17.206C-170.65,-13.651 -179.208,-9.522 -184.02,0C-159.605,-12.073 -133.708,-13.051 -107.539,-12.529C-92.688,-12.232 -77.826,-11.906 -62.978,-12.136C-49.836,-12.339 -36.947,-14.608 -24.985,-20.366C7.356,-35.934 20.313,-80.365 0,-107.669" style="fill:white;fill-rule:nonzero;"/>
                    </g>
                    <g transform="matrix(-0.914792,-0.403925,-0.403925,0.914792,654.378,872.128)">
                        <path d="M-11.297,-120.625C-1.906,-111.668 6.871,-102.374 9.936,-89.48C-20.147,-59.472 -26.243,-33.07 -11.297,-0.232C-9.707,3.261 -6.505,6.197 -7.03,10.515C-50.016,-29.499 -46.802,-90.054 -11.297,-120.625" style="fill:white;fill-rule:nonzero;"/>
                    </g>
                    <g transform="matrix(1,0,0,1,803.68,883.032)">
                        <path d="M0,-8.693C-17.323,-12.071 -35.02,-11.677 -52.583,-12.659C-68.703,-13.558 -85.048,-14.112 -99,-24.148C-107.842,-16.49 -116.178,-9.27 -124.712,-1.879C-119.54,3.893 -113.519,3.878 -107.826,4.374C-92.027,5.753 -76.244,4.513 -60.514,3.261C-29.065,0.756 2.349,-2.129 33.83,15.455C27.026,-2.579 13.529,-6.055 0,-8.693" style="fill:white;fill-rule:nonzero;"/>
                    </g>
                    <g transform="matrix(1,0,0,1,648.787,788.341)">
                        <path d="M0,35.879C2.896,16.637 13.457,1.891 29.006,-9.464C37.253,-15.486 46.377,-20.008 57.215,-24.572C30.945,-28.22 1.991,-15.924 -12.813,4.203C-26.131,22.308 -28.632,41.69 -19.523,64.099C-8.342,56.243 -1.823,47.992 0,35.879" style="fill:white;fill-rule:nonzero;"/>
                    </g>
                    <g transform="matrix(1,0,0,1,637.752,673.217)">
                        <path d="M0,27.839C-8.684,24.278 -17.89,21.58 -27.118,19.834C-44.479,16.55 -61.713,12.92 -78.516,7.935C-94.648,3.148 -110.381,-2.897 -125.44,-11.106C-125.587,-11.185 -125.735,-11.258 -125.882,-11.338C-126.656,-11.764 -127.448,-12.064 -128.461,-11.931C-129.584,-11.781 -130.979,-11.097 -132.939,-9.423C-133.01,-3.257 -131.43,1.284 -128.791,4.834C-120.766,15.63 -102.91,17.235 -91.617,27.305C-119.48,27.704 -142.337,22.53 -159.609,2.364C-162.781,-1.338 -165.906,-5.081 -169.019,-8.835C-177.409,-18.951 -185.706,-29.146 -194.55,-38.849C-200.75,-45.651 -207.858,-52.186 -220.103,-50.008C-221.418,-49.773 -222.773,-49.471 -224.212,-49.024C-205.117,-19.549 -186.058,7.542 -164.889,33.189C-154.294,46.026 -141.157,55.05 -125.959,61.493C-96.002,74.193 -64.132,76.722 -31.653,80.025C-18.81,66.021 -3.286,55.651 14.443,50.245C14.67,45.96 14.062,42.428 12.842,39.473C10.463,33.708 5.716,30.183 0,27.839" style="fill:white;fill-rule:nonzero;"/>
                    </g>
                </g>
            </g>
        </g>
    </g>
</svg>
