<?xml version="1.0" encoding="UTF-8" standalone="no"?>
<!DOCTYPE svg PUBLIC "-//W3C//DTD SVG 1.1//EN" "http://www.w3.org/Graphics/SVG/1.1/DTD/svg11.dtd">
<svg width="100%" height="100%" viewBox="0 0 1738 1738" version="1.1" xmlns="http://www.w3.org/2000/svg" xmlns:xlink="http://www.w3.org/1999/xlink" xml:space="preserve" xmlns:serif="http://www.serif.com/" style="fill-rule:evenodd;clip-rule:evenodd;stroke-linejoin:round;stroke-miterlimit:2;">
    <g transform="matrix(4.16667,0,0,4.16667,0,0)">
        <g transform="matrix(0.83927,0,0,0.837563,-670.793,-98.2737)">
            <path d="M1047.76,119.539C1183.97,119.539 1294.56,230.127 1294.56,366.341C1294.56,502.555 1183.97,613.143 1047.76,613.143C911.546,613.143 800.958,502.555 800.958,366.341C800.958,230.127 911.546,119.539 1047.76,119.539ZM1047.36,144.03C925.211,144.03 826.042,243.401 826.042,365.799C826.042,488.197 925.211,587.569 1047.36,587.569C1169.51,587.569 1268.68,488.197 1268.68,365.799C1268.68,243.401 1169.51,144.03 1047.36,144.03Z" style="fill:white;"/>
        </g>
        <g transform="matrix(1.1841,0,0,1.1841,-38.1303,-38.1273)">
            <path d="M208.053,67.246C285.847,67.246 349.005,130.405 349.005,208.198C349.005,285.991 285.847,349.15 208.053,349.15C130.26,349.15 67.102,285.991 67.102,208.198C67.102,130.405 130.26,67.246 208.053,67.246ZM211.133,293.258C207.773,295.491 206.544,298.92 206.075,302.608C205.541,306.808 203.231,309.564 199.719,311.532C196.204,313.501 192.313,314.057 188.385,314.487C181.193,315.275 173.869,315.263 166.987,317.97C164.518,318.941 162.18,320.069 160.865,322.67C167.535,319.372 174.609,319.105 181.757,319.247C185.814,319.328 189.874,319.417 193.93,319.355C197.52,319.299 201.04,318.679 204.308,317.106C213.142,312.854 216.682,300.717 211.133,293.258ZM222.3,285.798C218.965,287 215.747,288.354 213.558,291.238C217.764,302.056 216.375,309.326 209.016,315.883C208.234,316.58 207.11,316.96 206.764,318.097C221.921,312.841 227.799,297.355 222.3,285.798ZM250.173,262.611C250.268,261.986 250.537,261.366 250.778,260.738C251.269,259.46 251.646,258.144 250.215,256.663C245.711,259.114 240.999,261.207 236.027,262.599C228.945,262.5 222.132,261.198 215.569,258.309C214.846,257.991 214.042,257.823 213.318,256.788C215.089,256.592 216.489,257.255 217.922,257.599C230.429,260.621 242.659,259.729 254.247,254.131C263.191,249.818 269.013,242.361 272.866,233.308C273.955,230.753 272.298,229.624 270.541,228.515C257.391,220.179 243.802,219.131 229.665,225.939C222.533,229.367 216.117,233.694 210.898,239.697C210.465,240.198 210.093,240.881 208.721,240.766C213.25,233.558 218.889,228.042 225.765,223.688C234.594,218.097 243.62,215.987 252.28,216.522C253.51,216.596 254.727,216.724 255.944,216.907C264.131,218.11 271.926,221.633 278.836,226.737C280.74,228.143 281.096,229.649 280.368,231.658C289,218.248 294.009,202.285 294.009,185.152C294.009,137.633 255.487,99.111 207.968,99.111C160.449,99.111 121.927,137.633 121.927,185.152C121.927,200.67 126.037,215.227 133.225,227.798C133.593,227.349 134.076,226.945 134.617,226.548C142.73,220.619 151.532,217.15 160.517,216.549C161.856,216.454 163.194,216.427 164.54,216.461C173.491,216.711 182.543,219.828 191.197,226.19C195.767,229.549 199.574,233.626 202.913,238.176C203.481,238.94 204.164,239.684 204.259,241.381C201.507,238.758 199.323,236.31 196.788,234.316C185.485,225.446 173.193,219.442 158.252,222.194C152.181,223.31 146.583,225.736 141.547,229.394C140.1,230.442 139.653,231.659 140.384,233.275C145.515,244.653 153.29,253.279 165.642,256.856C165.94,256.942 166.238,257.018 166.535,257.1C166.229,257.141 165.848,257.328 165.312,257.785C165.293,259.469 165.724,260.71 166.445,261.679C168.637,264.629 173.515,265.067 176.6,267.818C168.989,267.927 162.745,266.513 158.027,261.005C157.161,259.993 156.307,258.971 155.457,257.946C153.165,255.182 150.898,252.397 148.482,249.747C146.789,247.889 144.847,246.104 141.502,246.699C141.143,246.763 140.773,246.845 140.38,246.967C145.596,255.019 150.802,262.419 156.585,269.425C159.479,272.932 163.067,275.397 167.219,277.157C175.402,280.626 184.108,281.317 192.98,282.219C196.488,278.393 200.729,275.561 205.572,274.084C205.634,272.914 205.467,271.949 205.134,271.141C206.076,271.172 207.019,271.193 207.968,271.193C209.051,271.193 210.128,271.166 211.201,271.126C210.644,272.214 210.347,273.534 210.379,275.146C203.293,277.531 196.286,279.82 192.219,286.559C188.685,292.414 190.659,302.328 196.002,306.391C196.023,292.341 200.581,286.781 214.657,284.042C219.723,283.056 224.852,282.145 229.992,281.831C246.229,280.838 259.087,274.355 267.497,259.981C269.357,256.802 271.706,253.913 273.744,250.834C274.524,249.656 275.736,248.649 275.719,247.046C274.04,246.501 272.828,246.34 271.609,246.806C270.609,247.188 269.604,247.989 268.332,249.357C266.99,250.799 265.701,252.29 264.426,253.795C262.121,256.516 259.865,259.283 257.444,261.897C252.985,266.711 247.153,267.825 240.752,267.119C243.892,265.617 247.032,264.114 250.173,262.611ZM250.173,262.611C250.169,262.629 250.166,262.648 250.163,262.666L250.249,262.575C250.223,262.587 250.198,262.599 250.173,262.611ZM205.526,110.871C201.157,112.605 196.964,109.652 194.953,103.204C201.232,103.581 204.686,106.155 205.526,110.871ZM256.616,179.195C254.7,181.47 253.253,182.943 250.448,182.112C251.492,179.272 253.536,178.973 256.616,179.195ZM147.375,133.648C151.553,136.608 152.769,141.438 150.27,145.142C146.195,143.192 145.184,139.177 147.375,133.648ZM268.096,128.976C270.012,135.44 268.804,139.991 264.319,142.535C261.383,138.102 262.975,132.684 268.096,128.976ZM173.494,161.248C171.764,157.838 172.532,155.513 176.642,152.335C177.377,157.743 176.747,159.432 173.494,161.248ZM281.458,149.565C275.33,153.665 270.736,153.822 266.847,150.234C269.649,145.767 275.611,145.421 281.458,149.565ZM132.499,181.061C132.454,180.952 132.433,180.902 132.499,181.061ZM272.396,139.836C272.421,139.817 272.447,139.797 272.472,139.777C272.502,139.684 272.532,139.591 272.562,139.498C272.558,139.616 272.554,139.734 272.549,139.851L272.546,139.849C272.493,139.841 272.444,139.838 272.396,139.836ZM248.656,130.2C248.642,130.143 248.627,130.086 248.616,130.04C248.645,130.073 248.679,130.112 248.714,130.151C248.714,130.151 248.662,130.195 248.656,130.2ZM248.744,130.316C248.71,130.276 248.683,130.241 248.656,130.2L248.717,130.154C248.724,130.208 248.737,130.262 248.744,130.316ZM189.581,121.608C189.52,121.547 189.466,121.494 189.405,121.433C189.405,121.433 189.408,121.43 189.41,121.428C189.225,120.842 189.038,120.261 188.85,119.679L188.716,119.634C188.716,119.634 188.831,119.631 188.833,119.627C188.833,119.625 188.832,119.623 188.832,119.622L188.885,119.691C189.076,120.251 189.267,120.811 189.462,121.367L189.461,121.368C189.501,121.448 189.541,121.529 189.581,121.608ZM165.831,131.783C165.844,131.729 165.851,131.668 165.865,131.614L165.932,131.668C165.898,131.709 165.865,131.743 165.831,131.783ZM145.353,143.33C145.353,143.324 145.346,143.324 145.339,143.317C145.339,143.315 145.337,143.314 145.336,143.313L145.141,143.302C145.141,143.302 145.287,143.26 145.286,143.257C145.286,143.255 145.355,143.314 145.355,143.314L145.349,143.314L145.353,143.317L145.353,143.33ZM132.67,181.326C133.542,182.258 134.407,183.212 135.306,184.124C139.681,188.559 144.907,189.851 150.876,188.269C151.329,188.147 151.775,188.025 152.222,187.883C152.668,186.011 153.898,185.085 155.947,184.861C157.522,184.692 159.084,184.584 160.639,184.544C161.268,184.246 161.896,183.955 162.525,183.658C167.609,181.258 172.706,178.905 179.068,177.891C171.01,172.577 165.155,166.33 163.215,156.953C159.098,155.75 154.966,154.432 151.674,151.558C149.031,149.253 146.022,147.171 145.353,143.33C149.653,148.016 154.149,152.369 161.369,152.998C161.64,145.494 160.416,137.868 165.831,131.783C164.614,138.118 163.215,144.399 164.229,150.956C166.054,162.862 172.747,171.252 183.084,176.701C184.017,177.195 185.038,177.506 186.126,177.729C186.85,174.552 187.904,171.571 189.25,168.779C184.132,166.906 180.685,160.634 180.45,151.97C186.732,153.923 191.25,158.306 192.623,162.982C193.845,161.221 195.195,159.533 196.666,157.934C197.315,145.568 195.436,133.46 189.581,121.608C194.463,126.496 196.491,132.811 198.289,139.24C198.614,140.403 198.499,141.701 199.648,143.121C203.211,137.171 204.211,130.782 204.989,124.292C206.077,132.209 205.563,139.882 201.379,146.954C200.473,148.482 199.749,149.888 199.932,151.754C200.027,152.66 200.101,153.566 200.155,154.472C201.379,153.363 202.663,152.295 204.009,151.268C205.618,150.037 207.247,149.794 208.951,151.085C209.918,151.822 210.857,152.566 211.756,153.336C212.98,153.046 214.318,152.836 215.759,152.728C215.624,153.911 215.285,155.047 214.779,156.101C217.772,159.02 220.312,162.189 222.36,165.627C224.074,160.685 228.815,155.687 233.992,153.557C236.125,160.985 231.955,170.131 225.766,172.859C227.022,176.394 227.82,180.178 228.104,184.226C235.392,181.88 240.158,176.37 244.207,170.103C251.394,158.981 252.064,146.765 249.366,134.136C249.096,132.878 248.94,131.587 248.744,130.316C253.477,136.658 254.545,144.047 254.632,151.977C257.634,151.93 259.757,150.267 262.015,148.949C265.727,146.792 268.195,143.209 271.528,140.626C268.729,147.529 263.381,151.964 257.04,155.412C255.755,156.115 254.382,156.649 252.996,157.284C251.705,162.118 250.218,166.797 247.865,171.164C245.567,175.437 242.423,179.034 238.535,182.745C240.895,183.536 243.085,184.226 245.208,184.956C248.426,184.55 251.726,184.469 255.085,184.672C256.33,184.746 257.323,184.855 258.121,185.044C258.124,185.045 258.127,185.045 258.13,185.046C259.734,182.155 262.37,181.34 266.467,182.289C264.91,185.207 263.191,186.655 260.691,186.885C261.137,187.791 261.326,189.068 261.44,190.905C261.447,190.993 261.454,191.074 261.454,191.162C270.575,194.509 277.308,192.271 282.926,184.016C283.609,183.009 284.258,181.968 285.042,180.764C283.42,191.419 274.901,197.531 264.807,195.036C263.719,194.766 262.637,194.468 261.562,194.144C261.603,198.193 261.224,202.169 260.291,206.076L260.291,206.083C259.831,208.023 259.23,209.943 258.486,211.843C258.121,212.776 257.736,213.702 257.276,214.588C256.262,216.562 254.517,216.035 253.071,215.494C252.949,215.447 252.848,215.399 252.753,215.352C251.367,214.628 252.503,213.432 252.936,212.553C255.978,206.293 256.296,199.654 255.897,192.88C255.883,192.643 255.849,192.427 255.809,192.224C255.518,190.824 254.545,190.351 253.003,190.223C251.888,190.128 250.786,190.067 249.704,190.053C238.88,189.851 230.037,193.502 223.006,200.783C220.87,202.994 218.896,205.535 217.091,208.409C215.772,210.505 214.576,212.641 213.534,214.845C212.061,217.948 210.891,221.173 210.114,224.58C210.005,225.033 209.951,225.595 209.167,225.811C208.856,223.999 209.072,222.261 209.431,220.517C209.918,218.124 210.539,215.805 211.303,213.56C213.71,206.55 217.523,200.296 223.087,194.975C223.669,194.428 224.162,193.792 224.696,193.197C223.669,192.271 223.838,191.095 223.851,189.864C223.865,188.417 223.811,187.011 223.682,185.632C222.776,175.701 218.294,167.493 211.033,160.624C210.283,159.914 209.505,159.218 208.694,158.535C207.159,157.237 205.949,157.501 204.489,158.711C204.036,159.083 203.596,159.461 203.163,159.847C202.163,160.733 201.21,161.638 200.31,162.578C198.506,164.451 196.91,166.432 195.537,168.514C193.523,171.563 191.975,174.842 190.947,178.371C190.109,181.211 189.602,184.212 189.439,187.376C189.405,188.059 189.385,188.749 189.385,189.445C189.378,191.548 189.04,192.629 186.775,191.399C184.619,188.871 184.639,186.044 185.072,183.266C183.145,182.144 181.002,181.704 178.602,182.205C175.539,182.847 172.632,183.908 169.799,185.132C174.241,185.855 178.568,187.248 182.753,189.445C184.078,190.135 185.437,190.757 186.775,191.413C189.615,194.759 193.077,197.517 195.612,201.162C195.761,201.378 195.916,201.594 196.058,201.817C199.019,206.184 201.237,210.795 202.65,215.825C203.576,219.111 204.157,222.579 204.374,226.27C202.718,225.06 202.886,223.695 202.562,222.586C201.953,220.497 201.25,218.462 200.452,216.501C199.952,215.291 199.425,214.115 198.857,212.965C195.382,205.935 190.44,199.931 183.558,195.334C176.398,190.554 168.306,189.614 159.915,190.27C158.347,190.392 157.522,191.203 157.428,192.724C157.083,197.957 157.137,203.135 158.577,208.118L158.577,208.125C158.989,209.578 159.53,211.012 160.206,212.431C160.652,213.371 162.119,214.622 160.348,215.433C160.125,215.535 159.902,215.629 159.672,215.71C158.218,216.217 156.677,216.184 155.764,214.196C154.892,212.303 154.135,210.369 153.533,208.395C153.107,207.023 152.749,205.644 152.472,204.231L152.472,204.224C152.317,203.44 152.181,202.649 152.08,201.851C151.647,198.572 151.579,195.252 151.796,191.94C149.227,192.251 146.59,192.156 143.886,191.507C138.355,190.175 134.123,187.207 132.67,181.326ZM186.775,191.413C186.769,191.406 186.762,191.392 186.755,191.386L186.775,191.399L186.796,191.419C186.789,191.419 186.782,191.413 186.775,191.413ZM132.499,181.061C132.535,181.088 132.578,181.119 132.621,181.151L132.623,181.15C132.636,181.211 132.65,181.271 132.67,181.326C132.636,181.285 132.596,181.251 132.562,181.211L132.603,181.17C132.584,181.186 132.56,181.208 132.56,181.208C132.538,181.155 132.517,181.104 132.499,181.061ZM271.696,140.375C271.79,140.01 272.015,139.821 272.396,139.836C272.163,140.016 271.93,140.195 271.696,140.375ZM271.528,140.626C271.555,140.565 271.575,140.505 271.602,140.444L271.604,140.445C271.635,140.422 271.666,140.398 271.696,140.375C271.685,140.417 271.675,140.461 271.667,140.509L271.669,140.511C271.622,140.545 271.575,140.586 271.528,140.626ZM277.109,159.996C277.117,165.395 275.705,167.709 271.838,168.927C270.409,165.242 271.97,162.478 277.109,159.996ZM152.468,168.762C157.645,165.509 161.821,165.662 164.642,169.034C161.745,172.316 157.621,172.286 152.468,168.762ZM218.714,127.472C215.673,132.947 211.923,134.926 207.361,133.686C206.991,129.283 211.845,126.542 218.714,127.472ZM135.853,167.01C143.639,169.521 148.345,180.472 143.954,186.13C137.102,183.314 133.922,175.573 135.853,167.01ZM263.545,204.121C263.285,204.121 263.027,204.12 262.768,204.118L262.74,204.06C263.016,204.059 263.291,204.058 263.567,204.057L263.545,204.121ZM235.495,175.45C233.738,171.353 234.563,168.683 238.35,165.565C240.131,170.057 239.264,173.266 235.495,175.45ZM258.693,117.318C261.486,123.25 259.296,130.43 253.848,132.509C250.999,127.398 253.084,121.096 258.693,117.318ZM241.431,110.819C245.939,113.251 247.615,117.615 245.533,121.505C241.501,120.311 239.891,116.116 241.431,110.819ZM159.99,210.836L159.881,210.802C159.875,210.795 159.875,210.795 159.875,210.789L159.99,210.836ZM251.421,171.101C253.885,166.697 259.322,165.809 265.825,168.934C261.397,173.514 255.218,174.373 251.421,171.101ZM280.264,166.378C283.578,175.716 280.519,185.612 273.539,188.686C268.236,185.15 270.758,173.715 280.264,166.378ZM189.948,127.603C185.69,129.962 180.991,127.782 177.985,121.839C184.278,121.148 188.206,123.105 189.948,127.603ZM245.639,157.354C241.689,155.717 240.591,153.249 241.334,148.093C245.302,149.722 246.979,153.151 245.639,157.354ZM221.344,138.806C220.493,142.572 218.194,143.816 213.408,143.099C215.456,139.121 217.516,138.007 221.344,138.806ZM165.977,131.425C165.982,131.395 165.983,131.392 165.977,131.425ZM181.64,134.218C178.259,141.56 171.46,145.254 166.295,142.776C166.495,136.872 173.647,132.79 181.64,134.218ZM191.339,110.446C192.822,113.485 193.013,116.034 191.307,118.668C188.309,116.554 188.308,114.328 191.339,110.446ZM153.434,121.423C160.379,125.183 163.103,130.034 161.557,135.551C156.053,135.733 151.938,128.766 153.434,121.423ZM149.349,152.226C146.847,155.76 143.165,156.068 138.385,153.143C142.07,149.618 146.249,149.268 149.349,152.226ZM200.696,134.401C196.497,132.629 196.147,128.961 195.738,124.696C200.947,127.399 202.64,130.827 200.696,134.401ZM160.163,182.621C156.618,183.492 154.871,182.16 153.703,177.645C157.087,177.874 159.612,178.864 160.163,182.621ZM180.179,262.526C175.772,261.219 171.474,259.567 167.361,257.325C177.102,259.86 186.936,259.998 196.788,257.322C197.512,257.126 198.276,256.646 199.405,257.572C194.097,259.979 188.844,261.845 183.274,262.318C182.242,262.406 181.21,262.475 180.179,262.526ZM248.558,129.975C248.534,129.948 248.53,129.944 248.558,129.975ZM165.962,131.505C165.953,131.552 165.943,131.609 165.932,131.666C165.932,131.666 165.865,131.612 165.865,131.611C165.899,131.574 165.933,131.536 165.962,131.505ZM171.492,117.576C172.199,122.178 171.178,124.445 167.222,126.622C165.75,122.774 167.001,120.24 171.492,117.576ZM234.501,119.232C230.478,119.301 228.827,117.472 227.979,111.843C231.577,113.453 234.436,115.051 234.501,119.232ZM248.399,141.408C242.372,144.464 233.989,140.281 230.169,132.507C237.617,129.99 247.23,134.573 248.399,141.408ZM216.224,104.027C218.139,110.477 217.481,113.373 213.692,115.984C210.684,112.693 211.58,108.11 216.224,104.027ZM246.952,315.298C242.22,314.375 237.385,314.483 232.588,314.215C228.185,313.969 223.72,313.818 219.909,311.076C217.493,313.168 215.216,315.14 212.885,317.159C214.298,318.736 215.942,318.732 217.498,318.867C221.813,319.244 226.125,318.905 230.421,318.563C239.012,317.879 247.593,317.091 256.193,321.894C254.334,316.968 250.647,316.019 246.952,315.298ZM204.641,301.607C205.432,296.351 208.317,292.323 212.564,289.221C214.817,287.576 217.309,286.341 220.27,285.094C213.094,284.098 205.184,287.457 201.141,292.955C197.503,297.9 196.819,303.195 199.308,309.316C202.362,307.17 204.143,304.916 204.641,301.607Z" style="fill:white;"/>
        </g>
    </g>
</svg>
